<?xml version="1.0" encoding="UTF-8" standalone="no" ?>
<!DOCTYPE svg PUBLIC "-//W3C//DTD SVG 1.1//EN" "http://www.w3.org/Graphics/SVG/1.1/DTD/svg11.dtd">
<svg xmlns="http://www.w3.org/2000/svg" xmlns:xlink="http://www.w3.org/1999/xlink" version="1.1" width="400" height="400" viewBox="0 0 400 400" xml:space="preserve">
<desc>Created with Fabric.js 5.3.0</desc>
<defs>
</defs>
<g transform="matrix(0.8375 0 0 0.8375 200 200)" id="-MoWvayRXGESVhI-7rcm_"  >
<g style=""   >
		<g transform="matrix(1 0 0 1 0.0000021355 -0.0000015481)" id="mZa-xvj2HUhrP3lpHyGAJ"  >
<path style="stroke: rgb(62,2,255); stroke-width: 0; stroke-dasharray: none; stroke-linecap: butt; stroke-dashoffset: 0; stroke-linejoin: miter; stroke-miterlimit: 4; fill: rgb(50,57,69); fill-rule: nonzero; opacity: 1;"  transform=" translate(-190.0000073785, -128.0379184519)" d="M 339.37739 40.62261 L 380.00001 0 L 380.00001 157.48348 L 339.37739 157.48348 z M 190.87973 16.47607 L 190.85752 16.49828 C 203.65949 23.73561 215.0938 33.113150000000005 224.67345 44.14389 L 195.84816 72.96916999999999 C 186.20151 61.09648999999999 173.50438 51.80055999999999 158.95430000000002 46.27893999999999 C 127.80133000000002 34.525859999999994 91.26874000000002 41.180049999999994 66.20729000000001 66.24148 C 32.086210000000015 100.36255 32.086210000000015 155.74749 66.20729000000001 189.86856 C 100.32837 223.98963 155.71331000000004 223.98963 189.83439 189.86856 C 189.84992000000003 189.85303 189.86545 189.83749 189.88097000000002 189.82194 L 339.37737000000004 40.325560000000024 L 339.37737000000004 97.77460000000002 L 218.61713000000003 218.53483000000003 C 218.59773000000004 218.55425000000002 218.57833000000002 218.57368000000002 218.55892000000003 218.59308000000001 C 218.53950000000003 218.6125 218.52009000000004 218.63188000000002 218.50067000000004 218.65129000000002 C 168.51889000000006 268.57008 87.44037000000003 268.55068 37.482770000000045 218.59308000000001 C 6.991660000000046 188.10198000000003 -4.896749999999955 146.01786 1.817560000000043 106.48661000000001 L 1.739910000000043 106.48661000000001 C 11.996750000000043 46.05945000000001 64.63775000000004 1.4210854715202004e-14 127.97113000000003 1.4210854715202004e-14 L 127.97112000000003 0.000010000000014210856 C 144.28536000000003 0.000010000000014210856 159.89014000000003 3.056260000000014 174.24372000000002 8.627050000000013 C 179.93063000000004 10.822630000000013 185.49201000000002 13.438980000000013 190.87973000000002 16.476070000000014 z" stroke-linecap="round" />
</g>
		<g transform="matrix(1 0 0 1 27.042925 -49.27907)" id="ca4QVMT-6LXZATWLMVwm2"  >
<path style="stroke: rgb(131,228,215); stroke-width: 0; stroke-dasharray: none; stroke-linecap: butt; stroke-dashoffset: 0; stroke-linejoin: miter; stroke-miterlimit: 4; fill: rgb(0,210,160); fill-rule: nonzero; opacity: 1;"  transform=" translate(-78.838565, -78.72463)" d="M 157.44929 0 L 157.67712999999998 0 L 157.67712999999998 57.2212 L 57.44904999999997 157.44926 L -2.842170943040401e-14 157.44926 z" stroke-linecap="round" />
</g>
</g>
</g>
</svg>